<svg width="27" height="27" viewBox="0 0 27 27" fill="none" xmlns="http://www.w3.org/2000/svg">
<path d="M7.99812 9.59625L6.41187 7.99875C5.39937 9.30375 4.76937 10.8112 4.57812 12.375H6.85062C7.00812 11.3962 7.40187 10.44 7.99812 9.59625ZM6.85062 14.625H4.57812C4.76937 16.1888 5.38812 17.6962 6.40062 19.0012L7.98687 17.4037C7.40187 16.56 7.00812 15.615 6.85062 14.625ZM7.98687 20.61C9.29187 21.6225 10.8106 22.23 12.3744 22.4212V20.1375C11.3956 19.9688 10.4506 19.5863 9.60687 18.9788L7.98687 20.61ZM14.6244 4.57875V1.125L9.50562 6.24375L14.6244 11.25V6.85125C17.8194 7.39125 20.2494 10.1587 20.2494 13.5C20.2494 16.8413 17.8194 19.6087 14.6244 20.1488V22.4212C19.0681 21.87 22.4994 18.09 22.4994 13.5C22.4994 8.91 19.0681 5.13 14.6244 4.57875Z" fill="white"/>
</svg>
