<svg width="27" height="27" viewBox="0 0 27 27" fill="none" xmlns="http://www.w3.org/2000/svg">
<path d="M19.0019 9.59625L20.5881 7.99875C21.6006 9.30375 22.2306 10.8112 22.4219 12.375H20.1494C19.9919 11.3962 19.5981 10.44 19.0019 9.59625ZM20.1494 14.625H22.4219C22.2306 16.1888 21.6119 17.6962 20.5994 19.0012L19.0131 17.4037C19.5981 16.56 19.9919 15.615 20.1494 14.625ZM19.0131 20.61C17.7081 21.6225 16.1894 22.23 14.6256 22.4212V20.1375C15.6044 19.9688 16.5494 19.5863 17.3931 18.9788L19.0131 20.61ZM12.3756 4.57875V1.125L17.4944 6.24375L12.3756 11.25V6.85125C9.18063 7.39125 6.75063 10.1587 6.75063 13.5C6.75063 16.8413 9.18063 19.6087 12.3756 20.1488V22.4212C7.93188 21.87 4.50063 18.09 4.50063 13.5C4.50063 8.91 7.93188 5.13 12.3756 4.57875Z" fill="white"/>
</svg>
