<svg width="24" height="24" viewBox="0 0 24 24" fill="none" xmlns="http://www.w3.org/2000/svg">
<path fill-rule="evenodd" clip-rule="evenodd" d="M2 11C2.00016 9.56238 2.3447 8.14571 3.00479 6.86859C3.66489 5.59146 4.62132 4.49105 5.79402 3.65947C6.96672 2.82788 8.32158 2.28933 9.74516 2.08889C11.1687 1.88844 12.6196 2.03194 13.9764 2.50738C15.3331 2.98281 16.5562 3.77634 17.5433 4.82154C18.5304 5.86673 19.2527 7.13318 19.6498 8.51487C20.0469 9.89656 20.1073 11.3533 19.8258 12.7631C19.5443 14.1729 18.9292 15.4947 18.032 16.618L21.707 20.293C21.8892 20.4816 21.99 20.7342 21.9877 20.9964C21.9854 21.2586 21.8802 21.5094 21.6948 21.6948C21.5094 21.8802 21.2586 21.9854 20.9964 21.9877C20.7342 21.99 20.4816 21.8892 20.293 21.707L16.618 18.032C15.2939 19.09 13.6979 19.7526 12.0138 19.9435C10.3297 20.1344 8.62586 19.8459 7.0985 19.1112C5.57113 18.3764 4.28228 17.2253 3.38029 15.7904C2.47831 14.3554 1.99985 12.6949 2 11ZM11 7C11.2652 7 11.5196 7.10536 11.7071 7.2929C11.8946 7.48043 12 7.73479 12 8V10H14C14.2652 10 14.5196 10.1054 14.7071 10.2929C14.8946 10.4804 15 10.7348 15 11C15 11.2652 14.8946 11.5196 14.7071 11.7071C14.5196 11.8946 14.2652 12 14 12H12V14C12 14.2652 11.8946 14.5196 11.7071 14.7071C11.5196 14.8946 11.2652 15 11 15C10.7348 15 10.4804 14.8946 10.2929 14.7071C10.1054 14.5196 10 14.2652 10 14V12H8C7.73478 12 7.48043 11.8946 7.29289 11.7071C7.10536 11.5196 7 11.2652 7 11C7 10.7348 7.10536 10.4804 7.29289 10.2929C7.48043 10.1054 7.73478 10 8 10H10V8C10 7.73479 10.1054 7.48043 10.2929 7.2929C10.4804 7.10536 10.7348 7 11 7Z" fill="white"/>
</svg>
